<?xml version="1.0" encoding="UTF-8" standalone="no"?>
<svg
   width="100"
   height="100"
   viewBox="0 0 100 100"
   xmlns="http://www.w3.org/2000/svg">
  <rect
     width="90"
     height="90"
     x="5"
     y="5"
     style="fill:#ffffff;stroke-width:0.9"
     ry="10.8"
     id="rect226" />
  <g
     style="fill:#ffffff"
     id="g240"
     transform="matrix(0.90000001,0,0,0.90000001,5.0000003,5.0000001)">
    <path
       d="M 9.7533893,19.579325 15.514129,17.139336 V 56.484065 L 5.0674044,30.951383 C 3.3047902,26.507127 5.4113842,21.409312 9.7533893,19.579325 Z M 93.585192,35.700641 72.26181,87.855286 c -1.332697,3.267843 -4.471018,5.27211 -7.781297,5.359258 -1.11773,0 -2.278519,-0.174229 -3.396265,-0.653609 L 29.400128,79.27174 c -3.224308,-1.35069 -5.201874,-4.48783 -5.28786,-7.842805 -0.04225,-1.17646 0.171908,-2.352841 0.6449,-3.485679 L 46.080535,15.788595 c 1.332697,-3.311402 4.514011,-5.315685 7.867284,-5.359242 1.11773,0 2.235525,0.217869 3.310295,0.653608 l 31.641125,13.289194 c 4.385049,1.829988 6.49159,6.927818 4.685986,11.328502 z M 53.977559,19.367443 32.710407,71.25469 64.308539,84.500311 h 0.04225 L 85.63118,32.432797 Z"
       id="path228"
       style="fill:#3f51b5" />
    <circle
       cx="54"
       cy="64"
       id="ellipse230"
       r="4"
       style="fill:#3f51b5" />
    <path
       d="m 24.155262,19.143602 c 0,-4.792815 3.86916,-8.714217 8.598138,-8.714217 h 6.233633 l -14.831771,36.33833 z"
       id="path232"
       style="fill:#3f51b5" />
    <g
       aria-label="BC"
       transform="rotate(22.15)"
       id="g238"
       style="fill:#3f51b5">
      <path
         d="m 61.822223,23.739479 v -12.84108 h 6.860806 q 2.659938,0 3.925702,0.953909 1.265763,0.935564 1.265763,2.403116 0,0.972253 -0.550332,1.742718 -0.531987,0.752121 -1.559274,1.192386 -1.027286,0.440266 -2.531527,0.440266 l 0.366888,-0.990598 q 1.504241,0 2.58656,0.421921 1.100664,0.421922 1.687685,1.229075 0.605365,0.788809 0.605365,1.907818 0,1.66934 -1.394174,2.604905 -1.37583,0.935564 -4.035768,0.935564 z m 4.255901,-3.026826 h 2.604905 q 0.715431,0 1.063975,-0.256822 0.366888,-0.256821 0.366888,-0.75212 0,-0.495299 -0.366888,-0.75212 -0.348544,-0.256822 -1.063975,-0.256822 h -2.898415 v -2.861727 h 2.311394 q 0.733776,0 1.063975,-0.238477 0.348544,-0.256821 0.348544,-0.715431 0,-0.476955 -0.348544,-0.715432 -0.330199,-0.238477 -1.063975,-0.238477 h -2.017884 z"
         id="path234"
         style="fill:#3f51b5" />
      <path
         d="m 82.643131,24.032989 q -1.54093,0 -2.861727,-0.476954 -1.302452,-0.495299 -2.274705,-1.394174 -0.953909,-0.898876 -1.485897,-2.127951 -0.531987,-1.229075 -0.531987,-2.714971 0,-1.485897 0.531987,-2.714971 0.531988,-1.229075 1.485897,-2.127951 0.972253,-0.898875 2.274705,-1.37583 1.320797,-0.495299 2.861727,-0.495299 1.889473,0 3.338681,0.660399 1.467552,0.660398 2.421461,1.907817 l -2.733316,2.439806 q -0.568676,-0.715432 -1.265764,-1.100664 -0.678742,-0.403577 -1.540929,-0.403577 -0.678743,0 -1.229075,0.220133 -0.550332,0.220132 -0.953909,0.642054 -0.385232,0.421921 -0.605365,1.027286 -0.220133,0.587021 -0.220133,1.320797 0,0.733776 0.220133,1.339141 0.220133,0.587021 0.605365,1.008942 0.403577,0.421921 0.953909,0.642054 0.550332,0.220133 1.229075,0.220133 0.862187,0 1.540929,-0.385232 0.697088,-0.403577 1.265764,-1.119009 l 2.733316,2.439805 q -0.953909,1.229075 -2.421461,1.907818 -1.449208,0.660398 -3.338681,0.660398 z"
         id="path236"
         style="fill:#3f51b5" />
    </g>
  </g>
</svg>
